/* XPM */
static char *step_xpm[] = {
/* width height num_colors chars_per_pixel */
"    16    16        8            1",
/* colors */
"` c #3c425c",
". c #d7c17f",
"# c #fce9b1",
"a c None",
"b c #a46e14",
"c c #5c84a4",
"d c #4c5a5c",
"e c #b3811c",
/* pixels */
"aaaaaaaaaaaaaaaa",
"aaaaaaaaaaaaaaaa",
"aaaaaaaaaaaaaaaa",
"aaeeeeee.aaaaaaa",
"aeaaaaaae.aaaaaa",
"aaeeeee.aeaaaaaa",
"aaaaaaaeaeaaaaaa",
"aaaaaaae#eaaaaaa",
"aaaaaeee#eeeaaaa",
"aaaaae#####eaaaa",
"aaaaaab###baaaaa",
"aaaaaaab#baaaaaa",
"accccaaabaaacccc",
"ad``daaaaaaad``d",
"aaaaaaaaaaaaaaaa",
"aaaaaaaaaaaaaaaa"
};
