/* XPM */
static char *until_xpm[] = {
/* width height num_colors chars_per_pixel */
"    16    16        8            1",
/* colors */
"` c None",
". c #347e5c",
"# c #93c583",
"a c #5faf70",
"b c #76b776",
"c c #dcead4",
"d c #aace8c",
"e c #44925c",
/* pixels */
"````````````````",
"````````````````",
"````````````````",
"```a#`dddac`````",
"```a#`###da`````",
"`````````#a`````",
"`````````#a`````",
"`````````ba`````",
"``````be`ba`eb``",
"``````.aaaaaa.``",
"```````.aaaa.```",
"````````.aa.````",
"`````````..`````",
"````````````````",
"````````````````",
"````````````````"
};
