/* XPM */
static char* alias_obj_xpm[] = {
/* width height num_colors chars_per_pixel */
"    16    16       16            1",
/* colors */
"` c None",
". c #0080c0",
"# c #c0dcc0",
"a c #808000",
"b c #000080",
"c c #800080",
"d c #008080",
"e c #800000",
"f c #008000",
"g c #a6caf0",
"h c #402000",
"i c #602000",
"j c #802000",
"k c #a02000",
"l c #c0c0c0",
"m c #c02000",
/* pixels */
"````````````````",
"````````````````",
"````````````````",
"````````````````",
"````````````````",
"````........````",
"````........````",
"````........````",
"````````````````",
"````........````",
"````........````",
"````........````",
"````````````````",
"````````````````",
"````````````````",
"````````````````"
};
