/* XPM */
static char* class_obj_xpm[] = {
/* width height num_colors chars_per_pixel */
"    16    16       16            1",
/* colors */
"` c None",
". c #3f9f3f",
"# c #3f7f5f",
"a c #ffffff",
"b c #3f5f3f",
"c c #7fbf5f",
"d c #bfbf9f",
"e c #bfdfbf",
"f c #3f9f7f",
"g c #7fbf9f",
"h c #dfdfbf",
"i c #000000",
"j c #000000",
"k c #000000",
"l c #000000",
"m c #000000",
/* pixels */
"````````````````",
"````````````````",
"`````h#####h````",
"````##.....##```",
"```#.........#``",
"``d#..caaac..#d`",
"``...cae.ga...#`",
"``#..eaf......b`",
"``#..eaf......b`",
"``#..eaf......b`",
"``...cae.ga..##`",
"``d#..caaac..bd`",
"```#........##``",
"````##....#b#```",
"`````d#bbb#d````",
"````````````````"
};