/* XPM */
static char *define_var_xpm[] = {
/* width height num_colors chars_per_pixel */
"    16    16        8            1",
/* colors */
"` c None",
". c #7b7b7b",
"# c #c1c1c1",
"a c #5a5a5a",
"b c #aaaaaa",
"c c #000000",
"d c #000000",
"e c #000000",
/* pixels */
"````````````````",
"````````````````",
"````````````````",
"````````````````",
"``````....``````",
"`````.####a`````",
"````.#####ba````",
"````.#####ba````",
"````.#####ba````",
"````.####bba````",
"`````abbbba`````",
"``````aaaa``````",
"````````````````",
"````````````````",
"````````````````",
"````````````````"
};
