/* XPM */
static char *define_fun_xpm[] = {
/* width height num_colors chars_per_pixel */
"    16    16        8            1",
/* colors */
"` c None",
". c #3d3d3d",
"# c #797979",
"a c #b4b4b4",
"b c #ffffff",
"c c #d7d7d7",
"d c #000000",
"e c #000000",
/* pixels */
"````````````````",
"````````````````",
"``.............`",
"``.###########.`",
"``.#aaaaaaaaa#.`",
"``.#aabbbbaaa#.`",
"``.#aabcccbaa#.`",
"``.#aabcaabaa#.`",
"``.#aabcaabaa#.`",
"``.#aabcaabaa#.`",
"``.#aabcccbaa#.`",
"``.#aabbbbaaa#.`",
"``.#aaaaaaaaa#.`",
"``.###########.`",
"``.............`",
"````````````````"
};
