/* XPM */
static char *macro_xpm[] = {
/* width height num_colors chars_per_pixel */
"    16    16        8            1",
/* colors */
"` c None",
". c #585858",
"# c #797979",
"a c #d7d7d7",
"b c #ffffff",
"c c #000000",
"d c #000000",
"e c #000000",
/* pixels */
"````````````````",
"````````````````",
"`````.......````",
"````...###...```",
"```..#######..``",
"``..#ab###ba#..`",
"``..#bbb#bbb#..`",
"``.##bababab##.`",
"``.##ba#b#ab##.`",
"``.##ba#b#ab##.`",
"``..#ba###ab#..`",
"``..#ba###ab#..`",
"```..ba###ab..``",
"````...###...```",
"`````.......````",
"````````````````"
};
