/* XPM */
static char *namespace_obj_xpm[] = {
/* width height num_colors chars_per_pixel */
"    16    16       16            1",
/* colors */
"` c None",
". c #fcaa68",
"# c #f6d66f",
"a c #040204",
"b c #ccaa6a",
"c c #342a3a",
"d c #345649",
"e c #fcd6cc",
"f c #000000",
"g c #000000",
"h c #000000",
"i c #000000",
"j c #000000",
"k c #000000",
"l c #000000",
"m c #000000",
/* pixels */
"````````````````",
"````````````````",
"`````e.....#````",
"````...###...```",
"```..##.#.##..``",
"``#.#cd#b#ca#.#`",
"``...dac##da#b.`",
"``.##cadb.aa##.`",
"``..#da#c#aa#..`",
"``.##ca#cbaa##.`",
"``b..da.#daa...`",
"``e.#ca##baa#.#`",
"```b.##.#.##.b``",
"````..b##....```",
"`````e....b#````",
"````````````````"
};
