/* XPM */
static char *property_var_xpm[] = {
/* width height num_colors chars_per_pixel */
"    16    16        8            1",
/* colors */
"` c None",
". c #5e3f46",
"# c #cecece",
"a c #c9adb4",
"b c #e0cfd3",
"c c #7e3f4d",
"d c #be5eb5",
"e c #9e5f8d",
/* pixels */
"`````````````..#",
"````````````.aa.",
"```````````b.``.",
"```````````b...`",
"``````cccc`b.```",
"`````cdddd.`.```",
"````cddddde.````",
"````cddddde.````",
"````cddddde.````",
"````cddddee.````",
"`````.eeee.`````",
"``````....``````",
"````````````````",
"````````````````",
"````````````````",
"````````````````"
};
