/* XPM */
static char* union_obj_xpm[] = {
/* width height num_colors chars_per_pixel */
"    16    16       16            1",
/* colors */
"` c None",
". c #d4d4aa",
"# c #aaaa55",
"a c #000000",
"b c #aaaa7f",
"c c #d4d47f",
"d c #9f9f5f",
"e c #7f7f2a",
"f c #bfbf5f",
"g c #000000",
"h c #000000",
"i c #000000",
"j c #000000",
"k c #000000",
"l c #000000",
"m c #000000",
/* pixels */
"````````````````",
"````````````````",
"`````.#####.````",
"````##bcccb##```",
"```#b.......b#``",
"``.#..ff.ff..#.`",
"``#b..ad.da..b#`",
"``ec..ad.da..c#`",
"``ec..ad.da..c#`",
"``ec..ad.da..c#`",
"``#b..adfda..b#`",
"``.e..faaaf..#.`",
"```#b.......b#``",
"````#ebcccb##```",
"`````.#eee#.````",
"````````````````"
};