/* XPM */
static char *variable_array_protected_obj_xpm[] = {
/* width height num_colors chars_per_pixel */
"    16    16        8            1",
/* colors */
"` c None",
". c #e79701",
"# c #cb7300",
"a c #f1bc0c",
"b c #000000",
"c c #000000",
"d c #000000",
"e c #000000",
/* pixels */
"````````````````",
"````````````````",
"```.````````#```",
"``..````````##``",
"``.````##````#``",
"`..```#..#```##`",
"`..``#....#``##`",
"`..`#.aaaa.#`##`",
"`..`#.aaaa.#`##`",
"`..``#....#``##`",
"``.```#..#```#``",
"``..```##```##``",
"```.````````#```",
"````````````````",
"````````````````",
"````````````````"
};
