/* XPM */
static char *variable_array_obj_xpm[] = {
/* width height num_colors chars_per_pixel */
"    16    16        8            1",
/* colors */
"` c None",
". c #7f9f5f",
"# c #3f7f3f",
"a c #9fbf5f",
"b c #3f5f3f",
"c c #000000",
"d c #000000",
"e c #000000",
/* pixels */
"````````````````",
"````````````````",
"````````````````",
"``.``````````.``",
"`..```####```..`",
"`.```#aaaab```.`",
"#.``#aaaaa.b``.b",
"#.``#aaaaa.b``.b",
"#.``#aaaaa.b``.b",
"#.``#aaaa..b``.b",
"#.```b....b```.b",
"`.````bbbb````.`",
"`..``````````..`",
"``.``````````.``",
"````````````````",
"````````````````"
};
