/* XPM */
static char *bookmark_xpm[] = {
/* width height num_colors chars_per_pixel */
"    16    16        8            1",
/* colors */
"` c #04478c",
". c #74a8e4",
"# c None",
"a c #84b8f4",
"b c #0c60a2",
"c c #7cafe9",
"d c #8bc0fb",
"e c #045094",
/* pixels */
"##########bbbbb#",
"##########bdddb#",
"##########bdddb#",
"##########bdddb#",
"##########bddab#",
"##########baaab#",
"##########eaaae#",
"##########eccce#",
"##########eccce#",
"##########`ccc`#",
"##########`...`#",
"##########`...`#",
"##########`.`.`#",
"##########``#``#",
"##########`###`#",
"################"
};
