/* XPM */
static char *down_xpm[] = {
/* width height num_colors chars_per_pixel */
"    16    16        8            1",
/* colors */
"` c None",
". c #bc8614",
"# c #fce294",
"a c #a97314",
"b c #fcf6d4",
"c c #b47e14",
"d c #fceeb4",
"e c #fcfefc",
/* pixels */
"````````````````",
"``````....``````",
"`````.eeee.`````",
"`````.eeee.`````",
"`````.bbbb.`````",
"`````cbbbbc`````",
"`````cbbbbc`````",
"`````cddddc`````",
"``acacddddcaac``",
"``a##########a``",
"```a########a```",
"````a######a````",
"`````a####a`````",
"``````a##a``````",
"```````aa```````",
"````````````````"
};
