/* XPM */
static char *findnext_xpm[] = {
/* width height num_colors chars_per_pixel */
"    16    16        8            1",
/* colors */
"` c None",
". c #bd8d31",
"# c #f2d78e",
"a c #fbf5c8",
"b c #d6af80",
"c c #4c6ea4",
"d c #9f7131",
"e c #b09a89",
/* pixels */
"`````..`````````",
"`````.a.```bdeeb",
"```...a#.`bbaabe",
"``.#aaaa#.#aca#e",
"`.#aaaaa#daca##d",
"`d##dd##daaa##bb",
"`d#d`d#d#aa##bb`",
"``d`.ddabd##bb``",
"```.#aabbedbb```",
"``...bbbeedb````",
"``baa.beeed`````",
"`baaaadeeed`````",
"baaaaaaded``````",
"#aaaaaadd```````",
"#aaaaa#d````````",
"````````````````"
};
