/* XPM */
static char *mark_clear_xpm[] = {
/* width height num_colors chars_per_pixel */
"    16    16        8            1",
/* colors */
"` c #000080",
". c #800000",
"# c #a8a098",
"a c #0000ff",
"b c #183050",
"c c None",
"d c #000000",
"e c #000000",
/* pixels */
"cccccccc..#ccccc",
"ccccccc..#cccccc",
"c...#c..#ccccccc",
"cc#....##cccbccc",
"ccc#...#cccbcccc",
"ccc#....#cbbcccc",
"ccc..##..baabccc",
"cc..##cc..aabccc",
"cc..#ccba.a`bccc",
"cc.#ccbbaa```bbc",
"cc##cbccb````aab",
"cc#cbcccb```aaab",
"cccbccccb``aaabc",
"ccbccccccbbaabcc",
"cbcccccccc#bbccc",
"cccccccccccccccc"
};
