/* XPM */
static char *shift_l_edit_xpm[] = {
/* width height num_colors chars_per_pixel */
"    16    16        8            1",
/* colors */
"` c None",
". c #bc8514",
"# c #fce595",
"a c #fcf4c5",
"b c #5c7eac",
"c c #aa6d14",
"d c #6c8abc",
"e c #b47b14",
/* pixels */
"````````````````",
"````````````````",
"`bd`````````````",
"`bd`````..``````",
"`bd````.a.``````",
"`bd```.aa......`",
"`bd``.aaaaaaaaa.",
"`bd`e##########e",
"`bd`e##########e",
"`bd``c#########c",
"`bd```c##cccccc`",
"`bd````c#c``````",
"`bd`````cc``````",
"`bd`````````````",
"````````````````",
"````````````````"
};
