/* XPM */
static char *show_pr_xpm[] = {
/* width height num_colors chars_per_pixel */
"    16    16        8            1",
/* colors */
"` c None",
". c #0080c0",
"# c #008800",
"a c #000000",
"b c #000000",
"c c #000000",
"d c #000000",
"e c #000000",
/* pixels */
"````````````````",
"````````````````",
"````````````````",
"`.....``#####```",
"`......`######``",
"`..``..`##``##``",
"`..``..`##``##``",
"`......`######``",
"`.....``#####```",
"`..`````##`###``",
"`..`````##``##``",
"`..`````##``###`",
"````````````````",
"````````````````",
"````````````````",
"````````````````"
};
