/* XPM */
static char *up_xpm[] = {
/* width height num_colors chars_per_pixel */
"    16    16        8            1",
/* colors */
"` c None",
". c #bc8614",
"# c #fce28c",
"a c #a77014",
"b c #fcf6cc",
"c c #fcfefc",
"d c #b47a14",
"e c #fceab4",
/* pixels */
"````````````````",
"```````..```````",
"``````.cc.``````",
"`````.cccc.`````",
"````.bbbbbb.````",
"```dbbbbbbbbd```",
"``deeeeeeeeeed``",
"``ddddeeeedddd``",
"`````d####d`````",
"`````a####a`````",
"`````a####a`````",
"`````a####a`````",
"`````a####a`````",
"`````a####a`````",
"``````aaaa``````",
"````````````````"
};
