/* XPM */
static char * accessories_calculator_3_48x48_xpm[] = {
"48 48 751 2",
"  	c None",
". 	c #373C3E",
"+ 	c #3D4243",
"@ 	c #3E4344",
"# 	c #424647",
"$ 	c #5C5F5D",
"% 	c #636563",
"& 	c #626462",
"* 	c #616462",
"= 	c #626563",
"- 	c #5B5E5D",
"; 	c #414647",
"> 	c #363C3D",
", 	c #626461",
"' 	c #575956",
") 	c #585A57",
"! 	c #656764",
"~ 	c #646663",
"{ 	c #676966",
"] 	c #666865",
"^ 	c #676866",
"/ 	c #636562",
"( 	c #595B58",
"_ 	c #575856",
": 	c #585956",
"< 	c #5E5D55",
"[ 	c #605D55",
"} 	c #5F5D54",
"| 	c #5E5D54",
"1 	c #585A55",
"2 	c #60625F",
"3 	c #595C5B",
"4 	c #363B3C",
"5 	c #3B4041",
"6 	c #606361",
"7 	c #555855",
"8 	c #4C4F4C",
"9 	c #5E605D",
"0 	c #898C89",
"a 	c #858784",
"b 	c #9A9B99",
"c 	c #979996",
"d 	c #8A8C89",
"e 	c #999B98",
"f 	c #919390",
"g 	c #9C9D9B",
"h 	c #606360",
"i 	c #4D504D",
"j 	c #55544D",
"k 	c #71634A",
"l 	c #796849",
"m 	c #796749",
"n 	c #786749",
"o 	c #72644A",
"p 	c #54534C",
"q 	c #545654",
"r 	c #5C5F5E",
"s 	c #3A3F41",
"t 	c #5E6160",
"u 	c #525552",
"v 	c #494C4A",
"w 	c #5B5D5C",
"x 	c #8B8C8B",
"y 	c #868786",
"z 	c #9B9C9C",
"A 	c #979898",
"B 	c #8C8C8C",
"C 	c #8B8B8B",
"D 	c #9C9D9C",
"E 	c #9A9A9A",
"F 	c #A0A0A0",
"G 	c #616363",
"H 	c #494B4A",
"I 	c #4B4D4C",
"J 	c #4A4D4C",
"K 	c #52514B",
"L 	c #706148",
"M 	c #786647",
"N 	c #776547",
"O 	c #786547",
"P 	c #51514B",
"Q 	c #505451",
"R 	c #5A5D5B",
"S 	c #3A3F40",
"T 	c #505350",
"U 	c #4E5848",
"V 	c #576749",
"W 	c #627454",
"X 	c #627354",
"Y 	c #657657",
"Z 	c #607152",
"` 	c #647556",
" .	c #647557",
"..	c #637455",
"+.	c #657658",
"@.	c #5A6B4C",
"#.	c #566748",
"$.	c #566749",
"%.	c #586849",
"&.	c #5D6B49",
"*.	c #5E6C48",
"=.	c #5F6C49",
"-.	c #5D6A49",
";.	c #505949",
">.	c #4F524F",
",.	c #575A58",
"'.	c #393E3F",
").	c #393F40",
"!.	c #575A5B",
"~.	c #535C4E",
"{.	c #71A046",
"].	c #85C944",
"^.	c #85C945",
"/.	c #86C945",
"(.	c #87C946",
"_.	c #87C947",
":.	c #87CA47",
"<.	c #87CA48",
"[.	c #88CA48",
"}.	c #88CA49",
"|.	c #89CA49",
"1.	c #89CA4A",
"2.	c #89CA4B",
"3.	c #89CA4C",
"4.	c #8ACA4C",
"5.	c #8ACA4D",
"6.	c #75A14B",
"7.	c #535656",
"8.	c #383E3F",
"9.	c #545658",
"0.	c #59694E",
"a.	c #9CEA50",
"b.	c #9BE850",
"c.	c #9CE752",
"d.	c #9DE358",
"e.	c #9DE25A",
"f.	c #9DE25B",
"g.	c #9EE25B",
"h.	c #9EE25C",
"i.	c #9FE25C",
"j.	c #9FE25D",
"k.	c #9FE35D",
"l.	c #9FE35E",
"m.	c #A0E35E",
"n.	c #A0E35F",
"o.	c #A1E360",
"p.	c #A1E45F",
"q.	c #A0E85A",
"r.	c #A0EA59",
"s.	c #A2EB59",
"t.	c #8FCC56",
"u.	c #59684E",
"v.	c #4F5253",
"w.	c #373D3E",
"x.	c #383D3F",
"y.	c #505355",
"z.	c #92CD5A",
"A.	c #A4EA5F",
"B.	c #A3E85F",
"C.	c #A5E268",
"D.	c #B4D890",
"E.	c #C0DFA2",
"F.	c #C1E0A2",
"G.	c #C1E0A3",
"H.	c #C1E0A4",
"I.	c #C2E0A4",
"J.	c #C2E0A5",
"K.	c #C2E1A5",
"L.	c #C3E1A5",
"M.	c #C3E1A6",
"N.	c #BEE29B",
"O.	c #ACE873",
"P.	c #A8EA67",
"Q.	c #A8E968",
"R.	c #A9EC69",
"S.	c #97CE62",
"T.	c #59694F",
"U.	c #4C4F50",
"V.	c #383D3E",
"W.	c #4D5152",
"X.	c #596850",
"Y.	c #99CE65",
"Z.	c #ACEC6E",
"`.	c #ABEA6E",
" +	c #ABEB6E",
".+	c #AEE479",
"++	c #C7E3AB",
"@+	c #DCF4C5",
"#+	c #DCF6C3",
"$+	c #DBF5C1",
"%+	c #DAF5BF",
"&+	c #D9F5BE",
"*+	c #D8F5BD",
"=+	c #D8F4BC",
"-+	c #D8F4BD",
";+	c #D9F5BF",
">+	c #DAF5C1",
",+	c #DBF5C3",
"'+	c #DDF6C5",
")+	c #DEF6C6",
"!+	c #DFF6C8",
"~+	c #E0F6CA",
"{+	c #D7F4BA",
"]+	c #B8ED85",
"^+	c #B0EC76",
"/+	c #B1EC77",
"(+	c #B2EE78",
"_+	c #9ECF6E",
":+	c #596750",
"<+	c #494C4D",
"[+	c #363B3D",
"}+	c #4A4E4F",
"|+	c #586651",
"1+	c #A0CF72",
"2+	c #B5EE7D",
"3+	c #B2EC79",
"4+	c #ADEB71",
"5+	c #A8E270",
"6+	c #BFE09F",
"7+	c #D6F3B8",
"8+	c #D5F4B5",
"9+	c #D3F4B3",
"0+	c #D2F4B2",
"a+	c #D1F4B1",
"b+	c #D1F3B0",
"c+	c #D1F3AF",
"d+	c #D2F4B1",
"e+	c #D4F4B6",
"f+	c #D6F5B9",
"g+	c #D9F6BE",
"h+	c #DFF7C8",
"i+	c #E2F8CC",
"j+	c #DAF6C0",
"k+	c #BFEF90",
"l+	c #B7EE82",
"m+	c #B7EE83",
"n+	c #B9EF83",
"o+	c #A3D077",
"p+	c #586551",
"q+	c #45494A",
"r+	c #474B4C",
"s+	c #56644F",
"t+	c #9CCF6C",
"u+	c #A8EB67",
"v+	c #9CE653",
"w+	c #92E543",
"x+	c #90DA47",
"y+	c #B1D98A",
"z+	c #D0F2B0",
"A+	c #D2F3B2",
"B+	c #D4F4B5",
"C+	c #D8F5BB",
"D+	c #D1F4B0",
"E+	c #B5ED80",
"F+	c #B3ED7B",
"G+	c #B8EE83",
"H+	c #BBF087",
"I+	c #A4D179",
"J+	c #56634F",
"K+	c #424648",
"L+	c #353A3C",
"M+	c #353B3C",
"N+	c #44484A",
"O+	c #4E6044",
"P+	c #83C741",
"Q+	c #8EE539",
"R+	c #8AE234",
"S+	c #8AE233",
"T+	c #8CDB3F",
"U+	c #A9DA79",
"V+	c #C3EF98",
"W+	c #C4F098",
"X+	c #C3F098",
"Y+	c #C4F099",
"Z+	c #BAEE87",
"`+	c #99E64E",
" @	c #96E549",
".@	c #A2E85E",
"+@	c #B0EE73",
"@@	c #A1D074",
"#@	c #53614D",
"$@	c #3F4345",
"%@	c #34393B",
"&@	c #343A3B",
"*@	c #414547",
"=@	c #485B3E",
"-@	c #7AC434",
";@	c #8CE633",
">@	c #8BE434",
",@	c #8BE236",
"'@	c #92E343",
")@	c #97E749",
"!@	c #98E74A",
"~@	c #95E745",
"{@	c #8DE437",
"]@	c #8AE433",
"^@	c #8CE436",
"/@	c #94E840",
"(@	c #89C94C",
"_@	c #4C5C44",
":@	c #3C4043",
"<@	c #33393A",
"[@	c #3D4144",
"}@	c #3D493C",
"|@	c #629635",
"1@	c #79C334",
"2@	c #7AC334",
"3@	c #79C433",
"4@	c #79C333",
"5@	c #79C332",
"6@	c #3C473B",
"7@	c #383C3F",
"8@	c #323839",
"9@	c #4B5051",
"0@	c #464A4A",
"a@	c #485346",
"b@	c #506346",
"c@	c #516546",
"d@	c #526546",
"e@	c #526646",
"f@	c #526647",
"g@	c #536647",
"h@	c #536648",
"i@	c #536748",
"j@	c #546748",
"k@	c #546848",
"l@	c #4B5749",
"m@	c #484C4C",
"n@	c #494E4F",
"o@	c #555957",
"p@	c #858885",
"q@	c #80827E",
"r@	c #797B78",
"s@	c #797A78",
"t@	c #787978",
"u@	c #787A78",
"v@	c #797A79",
"w@	c #797B79",
"x@	c #7A7C7A",
"y@	c #7C7D7B",
"z@	c #7C7E7C",
"A@	c #7D7E7D",
"B@	c #7D7F7D",
"C@	c #7E7F7D",
"D@	c #7E7F7E",
"E@	c #7F807F",
"F@	c #808280",
"G@	c #818280",
"H@	c #818381",
"I@	c #828382",
"J@	c #828482",
"K@	c #838583",
"L@	c #848684",
"M@	c #858785",
"N@	c #868785",
"O@	c #868886",
"P@	c #878986",
"Q@	c #8E908C",
"R@	c #8F918E",
"S@	c #575B59",
"T@	c #666864",
"U@	c #989A96",
"V@	c #8B8D89",
"W@	c #7A7C79",
"X@	c #787A77",
"Y@	c #7A7D79",
"Z@	c #848782",
"`@	c #898B86",
" #	c #868883",
".#	c #80827D",
"+#	c #7E807B",
"@#	c #7F817C",
"##	c #81837E",
"$#	c #888B85",
"%#	c #8C8E89",
"&#	c #8A8C86",
"*#	c #848681",
"=#	c #838580",
"-#	c #848680",
";#	c #8D908A",
">#	c #91948E",
",#	c #8F918C",
"'#	c #888A85",
")#	c #878984",
"!#	c #8B8D87",
"~#	c #92958F",
"{#	c #979993",
"]#	c #949691",
"^#	c #8D8F8A",
"/#	c #8D8F89",
"(#	c #9EA19B",
"_#	c #A5A7A3",
":#	c #686A66",
"<#	c #929491",
"[#	c #666968",
"}#	c #4C5050",
"|#	c #4E5252",
"1#	c #4B504F",
"2#	c #5E6261",
"3#	c #81837F",
"4#	c #737570",
"5#	c #6E706C",
"6#	c #737571",
"7#	c #72746F",
"8#	c #6D6F6A",
"9#	c #747671",
"0#	c #757772",
"a#	c #70726D",
"b#	c #747672",
"c#	c #6E706B",
"d#	c #767974",
"e#	c #8B8E88",
"f#	c #777A75",
"g#	c #70726E",
"h#	c #757773",
"i#	c #6F716C",
"j#	c #797C77",
"k#	c #90938D",
"l#	c #7A7C77",
"m#	c #70716D",
"n#	c #828480",
"o#	c #A1A39E",
"p#	c #696B67",
"q#	c #676965",
"r#	c #888B88",
"s#	c #525757",
"t#	c #636665",
"u#	c #6B6E6B",
"v#	c #464B4B",
"w#	c #727571",
"x#	c #9EA09C",
"y#	c #B4B5B1",
"z#	c #AFB1AC",
"A#	c #93958F",
"B#	c #6A6C68",
"C#	c #7B7D78",
"D#	c #6D6F6B",
"E#	c #9FA19D",
"F#	c #B4B6B2",
"G#	c #AFB0AC",
"H#	c #91938E",
"I#	c #9FA09C",
"J#	c #B5B6B2",
"K#	c #AEB0AC",
"L#	c #929490",
"M#	c #9FA09D",
"N#	c #9B9C99",
"O#	c #999A96",
"P#	c #878985",
"Q#	c #999B96",
"R#	c #505555",
"S#	c #5F625F",
"T#	c #60615D",
"U#	c #515451",
"V#	c #444848",
"W#	c #6F726E",
"X#	c #727470",
"Y#	c #ABAEA9",
"Z#	c #C6C8C3",
"`#	c #C5C7C3",
" $	c #A2A59F",
".$	c #787A75",
"+$	c #AEB0AB",
"@$	c #CDCFCB",
"#$	c #A1A49E",
"$$	c #7C7E79",
"%$	c #ACAEA9",
"&$	c #CECFCB",
"*$	c #A2A49F",
"=$	c #959793",
"-$	c #969793",
";$	c #90928D",
">$	c #979995",
",$	c #4C5151",
"'$	c #474A49",
")$	c #4E514E",
"!$	c #464947",
"~$	c #444949",
"{$	c #747673",
"]$	c #6C6E6A",
"^$	c #A5A8A1",
"/$	c #A6A8A2",
"($	c #6B6D68",
"_$	c #7C7F7A",
":$	c #6B6E69",
"<$	c #A8AAA4",
"[$	c #AAACA6",
"}$	c #8F928C",
"|$	c #8F928D",
"1$	c #A7AAA4",
"2$	c #A9ACA6",
"3$	c #858782",
"4$	c #6C6E69",
"5$	c #7B7C78",
"6$	c #9A9C98",
"7$	c #646867",
"8$	c #444948",
"9$	c #454A49",
"0$	c #5F6361",
"a$	c #848682",
"b$	c #767873",
"c$	c #8A8C87",
"d$	c #797B76",
"e$	c #A3A5A0",
"f$	c #868884",
"g$	c #6D706D",
"h$	c #696D6A",
"i$	c #6E726F",
"j$	c #7D7F7A",
"k$	c #8B8D88",
"l$	c #92948E",
"m$	c #969993",
"n$	c #80837D",
"o$	c #949791",
"p$	c #9C9F99",
"q$	c #959892",
"r$	c #A0A29C",
"s$	c #A8A9A5",
"t$	c #676A68",
"u$	c #4F5353",
"v$	c #616563",
"w$	c #858882",
"x$	c #777974",
"y$	c #71736F",
"z$	c #757672",
"A$	c #6F716D",
"B$	c #90938E",
"C$	c #767874",
"D$	c #969892",
"E$	c #7D807B",
"F$	c #71736E",
"G$	c #858783",
"H$	c #A4A6A1",
"I$	c #898B88",
"J$	c #474C4C",
"K$	c #767975",
"L$	c #B2B4B0",
"M$	c #92948F",
"N$	c #6C6D69",
"O$	c #91938D",
"P$	c #838680",
"Q$	c #9C9E9A",
"R$	c #878987",
"S$	c #515555",
"T$	c #454949",
"U$	c #737672",
"V$	c #CACCC7",
"W$	c #CCCECA",
"X$	c #A4A6A0",
"Y$	c #ADB0AB",
"Z$	c #CACDC8",
"`$	c #CCCEC9",
" %	c #A2A49E",
".%	c #ADAFA9",
"+%	c #CFD1CC",
"@%	c #CBCDC8",
"#%	c #6B6D69",
"$%	c #686965",
"%%	c #8A8D89",
"&%	c #454A4A",
"*%	c #787B77",
"=%	c #A6A9A3",
"-%	c #6E716C",
";%	c #A8AAA5",
">%	c #7A7C78",
",%	c #9D9F9A",
"'%	c #676B69",
")%	c #464B4A",
"!%	c #626664",
"~%	c #898C87",
"{%	c #70736E",
"]%	c #959792",
"^%	c #999C96",
"/%	c #A6A9A4",
"(%	c #717471",
"_%	c #6D716E",
":%	c #737673",
"<%	c #878A85",
"[%	c #81847E",
"}%	c #989A94",
"|%	c #959791",
"1%	c #848781",
"2%	c #9A9C96",
"3%	c #A3A59F",
"4%	c #9B9E98",
"5%	c #898C86",
"6%	c #A5A7A1",
"7%	c #969894",
"8%	c #696D6C",
"9%	c #505554",
"0%	c #4D5252",
"a%	c #646866",
"b%	c #787A76",
"c%	c #6F726D",
"d%	c #7E817B",
"e%	c #737470",
"f%	c #737671",
"g%	c #71726E",
"h%	c #A7AAA5",
"i%	c #8B8E8B",
"j%	c #535858",
"k%	c #484D4D",
"l%	c #7B7D79",
"m%	c #B2B4AF",
"n%	c #ADAFAA",
"o%	c #B3B5B1",
"p%	c #888A84",
"q%	c #9E9F9B",
"r%	c #90928E",
"s%	c #939491",
"t%	c #9E9F9C",
"u%	c #515656",
"v%	c #777A76",
"w%	c #AAADA8",
"x%	c #C3C5C0",
"y%	c #C7C9C4",
"z%	c #ADAFAB",
"A%	c #C9CBC6",
"B%	c #ABADA8",
"C%	c #C8C9C5",
"D%	c #767773",
"E%	c #9D9E9B",
"F%	c #969893",
"G%	c #91938F",
"H%	c #8D8E8A",
"I%	c #767774",
"J%	c #9D9F9B",
"K%	c #8D8F8D",
"L%	c #464A49",
"M%	c #7D7F7B",
"N%	c #A4A7A0",
"O%	c #6D706B",
"P%	c #8E908B",
"Q%	c #999B97",
"R%	c #6A6E6C",
"S%	c #656967",
"T%	c #7A7D78",
"U%	c #7F827C",
"V%	c #9A9D97",
"W%	c #727570",
"X%	c #8D8F8B",
"Y%	c #9EA19C",
"Z%	c #757976",
"`%	c #717572",
" &	c #777B77",
".&	c #8D908B",
"+&	c #999B95",
"@&	c #9EA09A",
"#&	c #979994",
"$&	c #878A84",
"%&	c #9B9D97",
"&&	c #9C9E98",
"*&	c #A1A39D",
"=&	c #8C8E8A",
"-&	c #9A9B98",
";&	c #6C706E",
">&	c #4E5353",
",&	c #515655",
"'&	c #777975",
")&	c #7E807A",
"!&	c #777874",
"~&	c #81837D",
"{&	c #9C9E99",
"]&	c #81847F",
"^&	c #838681",
"/&	c #545959",
"(&	c #555857",
"_&	c #494E4E",
":&	c #7F827E",
"<&	c #8C8F89",
"[&	c #929390",
"}&	c #9C9D9A",
"|&	c #939490",
"1&	c #7E807C",
"2&	c #8E918B",
"3&	c #82847F",
"4&	c #A0A29D",
"5&	c #8D8F8C",
"6&	c #474B4B",
"7&	c #7B7E7A",
"8&	c #B8BBB5",
"9&	c #B6B8B2",
"0&	c #AEB1AC",
"a&	c #949692",
"b&	c #A0A29E",
"c&	c #909390",
"d&	c #464A48",
"e&	c #454947",
"f&	c #484D4C",
"g&	c #A3A69F",
"h&	c #90928C",
"i&	c #6C6F6A",
"j&	c #A3A5A1",
"k&	c #646662",
"l&	c #9C9E9B",
"m&	c #6D7170",
"n&	c #474C4B",
"o&	c #686C6A",
"p&	c #7F827D",
"q&	c #A4A7A1",
"r&	c #5A5C58",
"s&	c #A5A8A4",
"t&	c #939692",
"u&	c #90938F",
"v&	c #949792",
"w&	c #9FA19C",
"x&	c #A5A7A2",
"y&	c #9B9D98",
"z&	c #9A9C97",
"A&	c #9A9D98",
"B&	c #A5A8A2",
"C&	c #A7AAA3",
"D&	c #9FA29C",
"E&	c #9FA19B",
"F&	c #ABADA7",
"G&	c #AFB2AB",
"H&	c #ACAEA8",
"I&	c #A3A6A0",
"J&	c #A6A8A3",
"K&	c #AFB2AC",
"L&	c #B4B6B0",
"M&	c #B1B3AD",
"N&	c #A9ABA5",
"O&	c #A8ABA5",
"P&	c #ACAFA8",
"Q&	c #BCBEB8",
"R&	c #A3A6A1",
"S&	c #5B5D5A",
"T&	c #454643",
"U&	c #969994",
"V&	c #A4A6A2",
"W&	c #A6A7A3",
"X&	c #A6A8A4",
"Y&	c #A7A9A4",
"Z&	c #A7A9A5",
"`&	c #A9ABA6",
" *	c #A9ACA7",
".*	c #AAACA7",
"+*	c #ACAEAA",
"@*	c #B0B1AD",
"#*	c #B0B2AD",
"$*	c #B0B2AE",
"%*	c #B1B3AE",
"&*	c #B1B4AF",
"**	c #A2A4A0",
"=*	c #434542",
"-*	c #454743",
";*	c #5C5E59",
">*	c #696A66",
",*	c #6A6B68",
"'*	c #5E605C",
"                                                                                                ",
"              . + @ @ @ @ @ @ @ @ @ @ @ @ @ @ @ @ @ @ @ @ @ @ @ @ @ @ @ @ @ @ + .               ",
"            # $ % % & * * * * * * & & % % % % % % % % % % % % = = = = = = = = = - ;             ",
"          > - , ' ) ! ~ { , ] ~ ^ / ] ( _ _ _ _ _ _ _ _ _ _ : < [ } } } } } | 1 2 3 4           ",
"          5 6 7 8 9 0 a b c d d e f g h 8 i i i i i i i i i j k l m m m n l o p q r s           ",
"          5 t u v w x y z A B C D E F G H I I I I I I I I J K L M N N N N O L P Q R S           ",
"          s - T U V W X Y Z ` X  ...+.@.#.#.$.$.$.$.$.$.$.$.%.&.*.*.*.*.*.=.-.;.>.,.'.          ",
"          ).!.~.{.].].].].].].^./././.(.(._._.:.<.<.[.}.}.}.|.1.1.1.2.2.3.4.5.6.~.7.8.          ",
"          '.9.0.5.a.b.b.c.d.e.f.g.g.h.h.h.i.j.k.k.l.m.n.n.n.n.o.o.o.p.q.r.r.s.t.u.v.w.          ",
"          x.y.0.z.A.B.B.C.D.E.F.F.G.G.G.G.G.H.I.I.I.I.J.J.J.K.L.K.M.N.O.P.Q.R.S.T.U.>           ",
"          V.W.X.Y.Z.`. +.+++@+#+$+%+&+*+=+=+=+-+&+;+>+,+'+)+!+!+!+~+{+]+^+/+(+_+:+<+[+          ",
"          . }+|+1+2+3+4+5+6+7+8+9+0+a+b+b+c+c+b+b+d+0+9+e+f+g+#+h+i+j+k+l+m+n+o+p+q+4           ",
"          [+r+s+t+u+v+w+x+y+z+b+c+c+c+c+c+c+c+c+c+c+c+c+c+b+b+A+B+C+D+E+F+G+H+I+J+K+L+          ",
"          M+N+O+P+Q+R+S+T+U+V+W+X+X+X+X+X+X+X+X+X+X+X+X+X+X+X+X+X+Y+Z+`+ @.@+@@@#@$@%@          ",
"          &@*@=@-@;@>@>@,@'@)@)@)@)@)@)@)@)@)@)@)@)@)@)@)@)@)@)@)@!@~@{@]@^@/@(@_@:@<@          ",
"          <@[@}@|@1@2@2@2@3@4@4@4@4@5@5@5@5@5@5@5@5@5@5@5@5@5@5@5@5@4@4@2@4@4@|@6@7@8@          ",
"          w.9@0@a@b@c@c@c@c@c@c@c@c@d@d@d@e@e@f@f@g@g@g@g@g@g@h@i@j@j@j@j@k@i@l@m@n@.           ",
"          o@p@q@r@s@s@t@t@t@u@u@u@v@w@w@x@y@z@A@B@C@D@E@F@G@H@I@J@J@K@L@M@N@O@P@Q@R@S@          ",
"          T@U@V@W@X@Y@Z@`@ #.#+#@###$#%#&#*#=#-# #;#>#,#'#)#'#!#~#{#]#^#%#/#^#,#(#_#:#          ",
"          T@<#[#}#|#1#2#3#4#5#6#7#8#9# #0#a#b#4#c#d#e#f#g#h#9#i#j#k#l#m#6#6#6#i#n#o#p#          ",
"          q#r#s#t#u#o@v#w#i#x#y#z#A#B#C#D#E#F#G#H#8#@#a#I#J#K#H#D#=#g#L#M#N#O#P#6#Q#p#          ",
"          q#p@R#S#T#U#V#W#X#Y#Z#`# $D#.$g#+$@$@$#$a#$$X#%$@$&$*$i#.#g#=$-$;$;$ #X#>$p#          ",
"          q#r#,$'$)$!$~${$]$;$^$/$k#($_$:$H#<$[$}$D#q@D#|$1$2$}$D#3$4$5$##@#@#b#g#6$p#          ",
"          T@<#7$8$8$9$0$a$9#($c#i#]$b$c$d#4$i#a#8#d$,#j#8#a#g#c#$$]#$$p#B#B#B#B#*#e$p#          ",
"          T@>$f$g$h$i$n#%#)#C#d$d$j$k$l$%#@#$$j$##}$m$H#=#.#n$3$o$p$q$)#*#3$3$`@r$s$p#          ",
"          T@<#t$,$u$}#v$w$h#a#0#9#5#x$%#.$y$h#z$A$l#B$C#7#C$h#g#_$D$E$y$h#h#b#F$G$H$B#          ",
"          q#I$s#t#u#o@J$K$g#x#L$+$M$N$@#i#E#F#z#O$c#P$y$x#F#+$B$5#)#y$L#M#N#O#P#b#Q$B#          ",
"          q#R$S$S#T#U#T$U$6#%$V$W$X$c#$$y$Y$Z$`$ %F$.#6#.%+%@% %a#*#7#=$-$;$;$ #4#6$#%          ",
"          $%%%W.'$)$!$&%*%D#;$1$2$H#4$##8#H#=%2$}$-%3$5#;$;%[$}$-%`@8#>%##@#@#b#y$,%#%          ",
"          q#=$'%&%9$)%!%~%x$4$i#a#8#d$;$l#D#a#{%c#$$]%_$c#F$y$A$@#^%@#($#%#%#%#%)#/%B#          ",
"          T@N#V@(%_%:%<%A#/#.#j$j$[%k#}%l$=#.###w$|%,%m$)#*#1%`@2%3%4%%#'#`@5%;#6%%$B#          ",
"          $%7%8%|#9%0%a%k$b%y$b$0#c%l#H#C#X#x$h#g#j$m$d%6#.$C$7#.#4%##e%C$h#f%g%'#h%B#          ",
"          :#i%j%t#u#o@k%l%y$x#m%n%l$8#P$g#E#o%+$;$A$p%X#q%o%K#r%c%e#e%s%t%U@=$G$h#E##%          ",
"          :#d u%S#T#U#0@v%b#w%x%y%3%A$.#X#z%A%@%o#7#1%b#B%C%@%#$F$'#D%E%F%,#G%H%I%J%]$          ",
"          :#K%|#L%)$!$v#M%-%}$N%1$k#O%w$5#H#;%[$,#a#5%c%}$=%2$}$a#k$b#7%P%'#k$f$b#x#]$          ",
"          :#Q%R%v#)%J$S%,#T%D#{%F$5#_$q$j$5#F$y$i#U%V%.#c%7#W%g#=#]#W%G%X%'#c$3#6#Y%]$          ",
"          q#I#B$Z%`% &.&+&M$*##### #F%@&#&$&1%3$&#%&3%&&%#'#`@.&*&+&y$=&%#'#`@+#X#E#]$          ",
"          :#-&;&>&,&>&'%B$$$X#'&b$F$)&#&@#9#.$!&7#~&{&]&4#C$b#g#^&D$g#P#k$'#`@+#X#E#]$          ",
"          :#R@/&t#u#(&_&:&4#t%K#;%H#5#$&y$E#o%+$;$F$<&7#[&}&|&1&D#2&A$3&c$'#`@+#4#4&]$          ",
"          :#5&s#S#T#U#6&7&h#B%8&9&#$g#^&f%0&W$`$ %6#`@y$a&]#P%##]$;#5#@#5%`@`@+#4#b&#%          ",
"          q#c&u$d&)$e&f&]&a#}$ $g&h&i#5%A$B$1$2$,#y$P%D#l#.#1&0#i&~#c#b#@#1&@#9#4#j&B#          ",
"          k&l&m&)%&%n&o&]#j$D#g#F$5#@#V%p&5#F$y$A$3&r$3&($($($:$1%q&Z@]$#%4$4$]$^#+$q#          ",
"          r&7%s&t&u&v&w&x&*$y&z&A&,%B&[$C&D&(#E& %F&G&H&q&e$I&J&K&L&M&N&1$;%O&P&Q&R&S&          ",
"          T&5#U&e$H$V&V&V&x&W&X&/%Y&Z&;%N&`& *.*B%B%B%Y#+*n%Y$+$K#G#@*#*$*%*m%&***6#=*          ",
"            -*;*T@:#:#:#:#:#:#:#:#:#:#:#:#>*>*p#p#p#p#,*B#B#B#B#B#B#B#B#B#($#%B#'*T&            ",
"                                                                                                ",
"                                                                                                ",
"                                                                                                "};
